<svg width="186" height="31" viewBox="0 0 186 31" fill="none" xmlns="http://www.w3.org/2000/svg">
<path d="M63.1406 4.96289H69.8595C75.2676 4.96289 79.0125 8.86201 79.0125 13.9507V14.0058C79.0125 19.0945 75.2676 23.0487 69.8595 23.0487H63.1406V4.96289ZM66.9296 8.55361V19.4579H69.8595C72.9325 19.4579 75.0473 17.2661 75.0473 14.0608V14.0058C75.0473 10.8006 72.9325 8.55361 69.8595 8.55361H66.9296Z" fill="#0D257B"/>
<path d="M83.8047 16.198V16.1429C83.8047 12.1667 86.8557 8.93945 90.9641 8.93945C95.0725 8.93945 98.0794 12.0896 98.0794 16.0989V16.1539C98.0794 20.1302 95.0284 23.3574 90.92 23.3574C86.8116 23.3574 83.8047 20.2073 83.8047 16.198ZM94.3896 16.198V16.1429C94.3896 14.1052 92.9908 12.3209 90.92 12.3209C88.8493 12.3209 87.5056 14.0281 87.5056 16.0878V16.1429C87.5056 18.1806 88.9044 19.9649 90.9751 19.9649C93.0458 19.9649 94.3896 18.2577 94.3896 16.198Z" fill="#0D257B"/>
<path d="M102.594 16.198V16.1429C102.594 12.1887 105.469 8.93945 109.511 8.93945C112 8.93945 113.52 9.82061 114.776 11.2635L112.485 13.8519C111.626 12.9267 110.833 12.3319 109.478 12.3319C107.605 12.3319 106.284 14.0392 106.284 16.0989V16.1539C106.284 18.3018 107.583 19.976 109.632 19.976C110.888 19.976 111.747 19.4032 112.661 18.5L114.853 20.8241C113.575 22.3 112.099 23.3574 109.467 23.3574C105.502 23.3574 102.605 20.1302 102.605 16.198H102.594Z" fill="#0D257B"/>
<path d="M120.504 4.96289H122.442V12.9924H132.378V4.96289H134.316V23.0487H132.378V14.909H122.442V23.0487H120.504V4.96289Z" fill="#D5A54D"/>
<path d="M150.86 9.6875H152.876L147.534 23.4776C146.454 26.2422 145.198 27.2446 143.304 27.2446C142.247 27.2446 141.454 27.0133 140.594 26.5727L141.233 24.9976C141.85 25.3391 142.412 25.4933 143.227 25.4933C144.383 25.4933 145.077 24.8765 145.837 22.993L140.055 9.6875H142.147L146.774 20.8231L150.86 9.6875Z" fill="#D5A54D"/>
<path d="M156.719 9.6875H158.812L163.096 20.7681L167.403 9.6875H169.44L163.9 23.1472H162.226L156.719 9.6875Z" fill="#D5A54D"/>
<path d="M173.34 16.4066V16.3515C173.34 12.5074 175.895 9.40137 179.442 9.40137C183.209 9.40137 185.368 12.5515 185.368 16.4506C185.368 16.737 185.368 16.8692 185.346 17.1005H175.256C175.532 19.9973 177.47 21.6164 179.739 21.6164C181.513 21.6164 182.691 20.8674 183.749 19.7329L184.927 20.8454C183.649 22.3654 182.118 23.3457 179.684 23.3457C176.215 23.3457 173.34 20.526 173.34 16.3956V16.4066ZM183.451 15.6356C183.253 13.2344 181.953 11.0866 179.387 11.0866C177.151 11.0866 175.521 13.0472 175.256 15.6356H183.451Z" fill="#D5A54D"/>
<mask id="mask0_1823_11748" style="mask-type:luminance" maskUnits="userSpaceOnUse" x="17" y="12" width="8" height="9">
<path d="M21.1042 20.7709L19.612 19.9128L17.4707 18.6743V14.4813L21.1042 12.3848L24.7302 14.4813V18.6743L22.5889 19.9128L21.1042 20.7709Z" fill="white"/>
</mask>
<g mask="url(#mask0_1823_11748)">
<path d="M24.7298 17.1672L21.2754 12.3848H24.7298V17.1672Z" fill="#E3C57F"/>
<path d="M24.7303 17.7268L20.873 12.3848H21.2759L24.7303 17.1672V17.7268Z" fill="#E3C57F"/>
<path d="M24.7305 18.2864L20.4629 12.3848H20.8732L24.7305 17.7268V18.2864Z" fill="#E3C47E"/>
<path d="M24.7311 18.8534L20.0605 12.3848H20.4634L24.7311 18.2864V18.8534Z" fill="#E2C47D"/>
<path d="M24.7293 19.413L19.6484 12.3848H20.0588L24.7293 18.8534V19.413Z" fill="#E2C37C"/>
<path d="M24.7299 19.9725L19.2461 12.3848H19.649L24.7299 19.413V19.9725Z" fill="#E2C27B"/>
<path d="M24.7301 20.2934L24.6182 20.3754L18.8359 12.3848H19.2463L24.7301 19.9725V20.2934Z" fill="#E2C27A"/>
<path d="M24.6187 20.3754L24.3501 20.5694L18.4336 12.3848H18.8365L24.6187 20.3754Z" fill="#E1C179"/>
<path d="M24.3501 20.5694L24.0815 20.7634L18.0605 12.437L18.1277 12.3848H18.4336L24.3501 20.5694Z" fill="#E1C078"/>
<path d="M24.0806 20.7629L24.0731 20.7704H23.6852L17.791 12.623L18.0596 12.4365L24.0806 20.7629Z" fill="#E1C077"/>
<path d="M23.2762 20.7704L17.5312 12.817L17.7924 12.623L23.6865 20.7704H23.2762Z" fill="#E0BF76"/>
<path d="M22.8724 20.7707L17.4707 13.2949V12.8621L17.5304 12.8174L23.2753 20.7707H22.8724Z" fill="#E0BF75"/>
<path d="M22.4695 20.7708L17.4707 13.862V13.2949L22.8724 20.7708H22.4695Z" fill="#E0BE74"/>
<path d="M22.0592 20.7711L17.4707 14.4219V13.8623L22.4695 20.7711H22.0592Z" fill="#E0BD73"/>
<path d="M21.6563 20.7711L17.4707 14.9814V14.4219L22.0592 20.7711H21.6563Z" fill="#DFBD72"/>
<path d="M21.2459 20.7702L17.4707 15.5475V14.9805L21.6563 20.7702H21.2459Z" fill="#DFBC71"/>
<path d="M20.843 20.7705L17.4707 16.1074V15.5479L21.2459 20.7705H20.843Z" fill="#DFBB70"/>
<path d="M20.4327 20.7705L17.4707 16.667V16.1074L20.843 20.7705H20.4327Z" fill="#DEBB6F"/>
<path d="M20.0298 20.7705L17.4707 17.2266V16.667L20.4327 20.7705H20.0298Z" fill="#DEBA6E"/>
<path d="M19.6195 20.7715L17.4707 17.7946V17.2275L20.0298 20.7715H19.6195Z" fill="#DEB96D"/>
<path d="M19.2166 20.7709L17.4707 18.3535V17.7939L19.6195 20.7709H19.2166Z" fill="#DDB96C"/>
<path d="M18.8137 20.7709L17.4707 18.9131V18.3535L19.2166 20.7709H18.8137Z" fill="#DDB86B"/>
<path d="M18.4033 20.7709L17.4707 19.4801V18.9131L18.8137 20.7709H18.4033Z" fill="#DDB76A"/>
<path d="M18.0004 20.7702L17.4707 20.0391V19.4795L18.4033 20.7702H18.0004Z" fill="#DDB769"/>
<path d="M17.5901 20.7712L17.4707 20.5996V20.04L18.0004 20.7712H17.5901Z" fill="#DCB668"/>
<path d="M17.4707 20.5986L17.5901 20.7702H17.4707V20.5986Z" fill="#DCB667"/>
</g>
<path d="M30.856 10.9452V22.2112L25.0962 25.5388L21.0971 27.8367L17.1055 25.5388L11.3457 22.2112V10.9452L21.0971 5.31964L24.7306 7.41616V13.2954L21.0971 11.1914L16.4341 13.8848V19.2716L19.1871 20.8682L21.0971 21.9724L23.0071 20.8682L25.7677 19.2716V15.4889H25.7602V2.79039L30.856 0V10.9452Z" fill="#0D257B"/>
<path d="M45.3069 0V22.2112H40.2186V13.9221H32.7129V8.82628H40.2186V2.79039L45.3069 0Z" fill="#0D257B"/>
<mask id="mask1_1823_11748" style="mask-type:luminance" maskUnits="userSpaceOnUse" x="7" y="22" width="8" height="9">
<path d="M11.2487 30.918L9.76398 30.06L7.61523 28.8214V24.6209L11.2487 22.5244L14.8822 24.6209V28.8214L12.7409 30.06L11.2487 30.918Z" fill="white"/>
</mask>
<g mask="url(#mask1_1823_11748)">
<path d="M14.8829 22.6438L14.8008 22.5244H14.8829V22.6438Z" fill="#D9B05E"/>
<path d="M14.883 23.2034L14.3906 22.5244H14.801L14.883 22.6438V23.2034Z" fill="#D9AF5D"/>
<path d="M14.8816 23.7704L13.9863 22.5244H14.3892L14.8816 23.2034V23.7704Z" fill="#D9AE5C"/>
<path d="M14.8818 24.33L13.5762 22.5244H13.9865L14.8818 23.7704V24.33Z" fill="#D9AE5B"/>
<path d="M14.8824 24.8895L13.1738 22.5244H13.5767L14.8824 24.33V24.8895Z" fill="#D8AD5A"/>
<path d="M14.8829 25.4566L12.7715 22.5244H13.1744L14.8829 24.8895V25.4566Z" fill="#D8AC59"/>
<path d="M14.8831 26.0161L12.3613 22.5244H12.7717L14.8831 25.4566V26.0161Z" fill="#D8AC58"/>
<path d="M14.8817 26.5757L11.957 22.5244H12.3599L14.8817 26.0161V26.5757Z" fill="#D7AB56"/>
<path d="M14.8819 27.1427L11.5469 22.5244H11.9572L14.8819 26.5757V27.1427Z" fill="#D7AB55"/>
<path d="M14.8825 27.7023L11.1445 22.5244H11.5474L14.8825 27.1427V27.7023Z" fill="#D7AA54"/>
<path d="M14.8827 28.2619L10.7344 22.5244H11.1447L14.8827 27.7023V28.2619Z" fill="#D6A953"/>
<path d="M14.8832 28.8289L10.332 22.5244H10.7349L14.8832 28.2619V28.8289Z" fill="#D6A952"/>
<path d="M14.8814 29.3885L9.91992 22.5244H10.3303L14.8814 28.8289V29.3885Z" fill="#D6A851"/>
<path d="M14.882 29.948L9.51758 22.5244H9.92047L14.882 29.3885V29.948Z" fill="#D6A750"/>
<path d="M14.8822 30.4405L14.8449 30.4628L9.10742 22.5244H9.51777L14.8822 29.948V30.4405Z" fill="#D5A74F"/>
<path d="M14.8454 30.4628L14.5843 30.6568L8.70508 22.5244H9.10797L14.8454 30.4628Z" fill="#D5A64E"/>
<path d="M14.5829 30.6568L14.3143 30.8508L8.30078 22.5244H8.70367L14.5829 30.6568Z" fill="#D5A54D"/>
<path d="M14.315 30.8508L14.218 30.918H13.9568L8.02539 22.7109L8.27906 22.5244H8.30145L14.315 30.8508Z" fill="#D4A54C"/>
<path d="M13.555 30.918L7.75781 22.9049L8.0264 22.7109L13.9578 30.918H13.555Z" fill="#D4A44B"/>
<path d="M13.1438 30.9183L7.61523 23.2709V23.0097L7.75699 22.9053L13.5541 30.9183H13.1438Z" fill="#D4A34A"/>
<path d="M12.7409 30.918L7.61523 23.8301V23.2705L13.1438 30.918H12.7409Z" fill="#D4A349"/>
<path d="M12.3305 30.918L7.61523 24.3971V23.8301L12.7409 30.918H12.3305Z" fill="#D3A248"/>
<path d="M11.9277 30.9183L7.61523 24.957V24.3975L12.3305 30.9183H11.9277Z" fill="#D3A147"/>
<path d="M11.5173 30.9183L7.61523 25.5166V24.957L11.9277 30.9183H11.5173Z" fill="#D3A146"/>
<path d="M11.1144 30.9173L7.61523 26.0827V25.5156L11.5173 30.9173H11.1144Z" fill="#D2A045"/>
<path d="M10.7041 30.9177L7.61523 26.6426V26.083L11.1144 30.9177H10.7041Z" fill="#D2A044"/>
<path d="M10.3012 30.9177L7.61523 27.2021V26.6426L10.7041 30.9177H10.3012Z" fill="#D29F43"/>
<path d="M9.89828 30.9177L7.61523 27.7692V27.2021L10.3012 30.9177H9.89828Z" fill="#D29E42"/>
<path d="M9.48793 30.918L7.61523 28.3291V27.7695L9.89828 30.918H9.48793Z" fill="#D19E41"/>
<path d="M9.08504 30.918L7.61523 28.8887V28.3291L9.48793 30.918H9.08504Z" fill="#D19D40"/>
<path d="M8.67469 30.918L7.61523 29.4557V28.8887L9.08504 30.918H8.67469Z" fill="#D19C3F"/>
<path d="M8.2718 30.9174L7.61523 30.0146V29.4551L8.67469 30.9174H8.2718Z" fill="#D09C3E"/>
<path d="M7.86145 30.9184L7.61523 30.5752V30.0156L8.2718 30.9184H7.86145Z" fill="#D09B3D"/>
<path d="M7.61523 30.5742L7.86145 30.9174H7.61523V30.5742Z" fill="#D09A3C"/>
</g>
<mask id="mask2_1823_11748" style="mask-type:luminance" maskUnits="userSpaceOnUse" x="0" y="22" width="8" height="9">
<path d="M3.67644 31L2.19172 30.1345L0.0429688 28.9035V24.703L3.67644 22.6064L7.30992 24.703V28.9035L5.16863 30.1345L3.67644 31Z" fill="white"/>
</mask>
<g mask="url(#mask2_1823_11748)">
<path d="M7.30922 22.875L7.11523 22.6064H7.30922V22.875Z" fill="#D4A34A"/>
<path d="M7.30976 23.4346L6.71289 22.6064H7.11578L7.30976 22.875V23.4346Z" fill="#D4A349"/>
<path d="M7.31031 23.9942L6.31055 22.6064H6.71344L7.31031 23.4346V23.9942Z" fill="#D3A248"/>
<path d="M7.31051 24.5612L5.90039 22.6064H6.31074L7.31051 23.9942V24.5612Z" fill="#D3A147"/>
<path d="M7.3091 25.1208L5.49609 22.6064H5.89898L7.3091 24.5612V25.1208Z" fill="#D3A146"/>
<path d="M7.30929 25.6803L5.08594 22.6064H5.49629L7.30929 25.1208V25.6803Z" fill="#D2A045"/>
<path d="M7.30984 26.2474L4.68359 22.6064H5.08648L7.30984 25.6803V26.2474Z" fill="#D2A044"/>
<path d="M7.31004 26.807L4.27344 22.6064H4.68379L7.31004 26.2474V26.807Z" fill="#D29F43"/>
<path d="M7.31058 27.3665L3.87109 22.6064H4.27398L7.31058 26.807V27.3665Z" fill="#D29E42"/>
<path d="M7.31078 27.9335L3.46094 22.6064H3.87129L7.31078 27.3665V27.9335Z" fill="#D19E41"/>
<path d="M7.30937 28.4931L3.05664 22.6064H3.45953L7.30937 27.9336V28.4931Z" fill="#D19D40"/>
<path d="M7.30992 29.0527L2.6543 22.6064H3.05719L7.30992 28.4931V29.0527Z" fill="#D19C3F"/>
<path d="M7.31011 29.6197L2.24414 22.6064H2.65449L7.31011 29.0527V29.6197Z" fill="#D09C3E"/>
<path d="M7.31066 30.1793L1.8418 22.6064H2.24469L7.31066 29.6197V30.1793Z" fill="#D09B3D"/>
<path d="M7.3089 30.515L7.20445 30.5971L1.42969 22.6064H1.84004L7.3089 30.1793V30.515Z" fill="#D09A3C"/>
<path d="M7.205 30.5971L6.9364 30.7911L1.02734 22.6064H1.43023L7.205 30.5971Z" fill="#CF9A3B"/>
<path d="M6.93605 30.7911L6.67492 30.9776L0.646484 22.6512L0.706173 22.6064H1.02699L6.93605 30.7911Z" fill="#CF993A"/>
<path d="M6.67628 30.9778L6.6539 31.0001H6.28085L0.386719 22.8454L0.64785 22.6514L6.67628 30.9778Z" fill="#CF9839"/>
<path d="M5.86956 30.9995L0.117188 23.0387L0.385781 22.8447L6.27992 30.9995H5.86956Z" fill="#CF9838"/>
<path d="M5.46706 30.9999L0.0429688 23.5016V23.0838L0.117578 23.0391L5.86996 30.9999H5.46706Z" fill="#CE9737"/>
<path d="M5.05672 31.0002L0.0429688 24.0615V23.502L5.46706 31.0002H5.05672Z" fill="#CE9736"/>
<path d="M4.65382 30.9992L0.0429688 24.6201V24.0605L5.05671 30.9992H4.65382Z" fill="#CE9635"/>
<path d="M4.25093 31.0002L0.0429688 25.1881V24.6211L4.65382 31.0002H4.25093Z" fill="#CD9534"/>
<path d="M3.84058 30.9996L0.0429688 25.7471V25.1875L4.25093 30.9996H3.84058Z" fill="#CD9533"/>
<path d="M3.43769 30.9996L0.0429688 26.3066V25.7471L3.84058 30.9996H3.43769Z" fill="#CD9432"/>
<path d="M3.02734 30.9996L0.0429688 26.8737V26.3066L3.43769 30.9996H3.02734Z" fill="#CD9331"/>
<path d="M2.62445 30.9999L0.0429688 27.4336V26.874L3.02734 30.9999H2.62445Z" fill="#CC9330"/>
<path d="M2.2141 30.9999L0.0429688 27.9932V27.4336L2.62445 30.9999H2.2141Z" fill="#CC922F"/>
<path d="M0.0429688 27.9932L2.2141 30.9999H0.0429688V27.9932Z" fill="#CC922F"/>
</g>
<mask id="mask3_1823_11748" style="mask-type:luminance" maskUnits="userSpaceOnUse" x="3" y="16" width="9" height="9">
<path d="M7.3991 24.39L5.91437 23.532L3.76562 22.2935V18.1004L7.3991 16.0039L11.0326 18.1004V22.2935L8.89128 23.532L7.3991 24.39Z" fill="white"/>
</mask>
<g mask="url(#mask3_1823_11748)">
<path d="M11.0324 16.1979L10.8906 16.0039H11.0324V16.1979Z" fill="#DAB160"/>
<path d="M11.0329 16.7575L10.4883 16.0039H10.8912L11.0329 16.1979V16.7575Z" fill="#DAB05F"/>
<path d="M11.0335 17.317L10.0859 16.0039H10.4888L11.0335 16.7575V17.317Z" fill="#D9B05E"/>
<path d="M11.0317 17.8841L9.67383 16.0039H10.0842L11.0317 17.317V17.8841Z" fill="#D9AF5D"/>
<path d="M11.0323 18.4436L9.27148 16.0039H9.67438L11.0323 17.8841V18.4436Z" fill="#D9AE5C"/>
<path d="M11.0325 19.0032L8.86133 16.0039H9.27168L11.0325 18.4436V19.0032Z" fill="#D9AE5B"/>
<path d="M11.033 19.5702L8.45898 16.0039H8.86188L11.033 19.0032V19.5702Z" fill="#D8AD5A"/>
<path d="M11.0332 20.1298L8.04883 16.0039H8.45918L11.0332 19.5702V20.1298Z" fill="#D8AC59"/>
<path d="M11.0318 20.6894L7.64453 16.0039H8.04742L11.0318 20.1298V20.6894Z" fill="#D8AC58"/>
<path d="M11.032 21.2564L7.23438 16.0039H7.64473L11.032 20.6894V21.2564Z" fill="#D7AB56"/>
<path d="M11.0325 21.816L6.83203 16.0039H7.23492L11.0325 21.2564V21.816Z" fill="#D7AB55"/>
<path d="M11.0331 22.3755L6.42969 16.0039H6.83258L11.0331 21.816V22.3755Z" fill="#D7AA54"/>
<path d="M11.0333 22.9351L6.01953 16.0039H6.42988L11.0333 22.3755V22.9351Z" fill="#D6A953"/>
<path d="M11.0319 23.5021L5.61523 16.0039H6.01813L11.0319 22.9351V23.5021Z" fill="#D6A952"/>
<path d="M11.0321 23.9125L10.9649 23.9647L5.20508 16.0039H5.61543L11.0321 23.5021V23.9125Z" fill="#D6A851"/>
<path d="M10.9655 23.9647L10.6969 24.1587L4.80273 16.0039H5.20562L10.9655 23.9647Z" fill="#D6A750"/>
<path d="M10.6978 24.1587L10.4292 24.3527L4.4082 16.0188L4.43059 16.0039H4.80363L10.6978 24.1587Z" fill="#D5A74F"/>
<path d="M10.4282 24.3534L10.3686 24.3907H10.0552L4.13867 16.2135L4.40727 16.0195L10.4282 24.3534Z" fill="#D5A64E"/>
<path d="M9.64585 24.3901L3.87109 16.4069L4.13969 16.2129L10.0562 24.3901H9.64585Z" fill="#D5A54D"/>
<path d="M9.24195 24.3894L3.76562 16.8241V16.4809L3.87008 16.4062L9.64484 24.3894H9.24195Z" fill="#D4A54C"/>
<path d="M8.8316 24.3896L3.76562 17.3838V16.8242L9.24195 24.3896H8.8316Z" fill="#D4A44B"/>
<path d="M8.42871 24.3896L3.76562 17.9434V17.3838L8.8316 24.3896H8.42871Z" fill="#D4A34A"/>
<path d="M8.01836 24.3906L3.76562 18.5114V17.9443L8.42871 24.3906H8.01836Z" fill="#D4A349"/>
<path d="M7.61547 24.39L3.76562 19.0703V18.5107L8.01836 24.39H7.61547Z" fill="#D3A248"/>
<path d="M7.21257 24.39L3.76562 19.6299V19.0703L7.61547 24.39H7.21257Z" fill="#D3A147"/>
<path d="M6.80222 24.39L3.76562 20.1969V19.6299L7.21257 24.39H6.80222Z" fill="#D3A146"/>
<path d="M6.39933 24.3903L3.76562 20.7568V20.1973L6.80222 24.3903H6.39933Z" fill="#D2A045"/>
<path d="M5.98898 24.3893L3.76562 21.3154V20.7559L6.39933 24.3893H5.98898Z" fill="#D2A044"/>
<path d="M5.58609 24.3903L3.76562 21.8834V21.3164L5.98898 24.3903H5.58609Z" fill="#D29F43"/>
<path d="M5.17574 24.3897L3.76562 22.4424V21.8828L5.58609 24.3897H5.17574Z" fill="#D29E42"/>
<path d="M4.77285 24.3897L3.76562 23.002V22.4424L5.17574 24.3897H4.77285Z" fill="#D19E41"/>
<path d="M4.3625 24.3897L3.76562 23.5615V23.002L4.77285 24.3897H4.3625Z" fill="#D19D40"/>
<path d="M3.95961 24.3897L3.76562 24.1286V23.5615L4.3625 24.3897H3.95961Z" fill="#D19C3F"/>
<path d="M3.76562 24.1289L3.95961 24.39H3.76562V24.1289Z" fill="#D09C3E"/>
</g>
</svg>
