<svg width="14" height="18" viewBox="0 0 14 18" fill="none" xmlns="http://www.w3.org/2000/svg">
<g clip-path="url(#clip0_2093_4702)">
<path d="M7.00011 8.99826C9.45462 8.99826 11.4446 7.00833 11.4446 4.55382C11.4446 2.09931 9.45462 0.109375 7.00011 0.109375C4.54559 0.109375 2.55566 2.09931 2.55566 4.55382C2.55809 7.00729 4.54664 8.99583 7.00011 8.99826ZM7.00011 1.59097C8.63657 1.59097 9.96295 2.91771 9.96295 4.55382C9.96295 6.18993 8.63622 7.51667 7.00011 7.51667C5.364 7.51667 4.03726 6.18993 4.03726 4.55382C4.03726 2.91771 5.36365 1.59097 7.00011 1.59097Z" fill="#0D257B"/>
<path d="M6.99967 10.4805C3.31947 10.4846 0.337174 13.4669 0.333008 17.1471C0.333008 17.5562 0.664605 17.8878 1.07363 17.8878C1.48266 17.8878 1.81426 17.5562 1.81426 17.1471C1.81426 14.2836 4.13579 11.9621 6.99933 11.9621C9.86287 11.9621 12.1844 14.2836 12.1844 17.1471C12.1844 17.5562 12.516 17.8878 12.925 17.8878C13.334 17.8878 13.6656 17.5562 13.6656 17.1471C13.6622 13.4669 10.6799 10.4843 6.99967 10.4805Z" fill="#0D257B"/>
</g>
<defs>
<clipPath id="clip0_2093_4702">
<rect width="13.3333" height="17.7778" fill="white" transform="translate(0.333008 0.109375)"/>
</clipPath>
</defs>
</svg>
