<svg width="18" height="19" viewBox="0 0 18 19" fill="none" xmlns="http://www.w3.org/2000/svg">
<g clip-path="url(#clip0_2093_4728)">
<path fill-rule="evenodd" clip-rule="evenodd" d="M3.7194 6.7224C2.35388 6.7224 1.23705 7.83923 1.23705 9.20475V14.755C1.23705 16.1205 2.35388 17.2373 3.7194 17.2373H13.187C14.5525 17.2373 15.6693 16.1205 15.6693 14.755V14.3921H14.7209C13.5585 14.3921 12.4301 13.5421 12.3235 12.2864C12.2569 11.5754 12.5276 10.9111 12.9967 10.4501C13.4186 10.0196 13.9972 9.7738 14.622 9.7738H15.6693V9.20475C15.6693 7.83923 14.5525 6.7224 13.187 6.7224H3.7194ZM0 9.20475C0 7.15603 1.67066 5.48535 3.7194 5.48535H13.187C15.2357 5.48535 16.9064 7.15603 16.9064 9.20475V10.3923C16.9064 10.7339 16.6294 11.0108 16.2879 11.0108H14.622C14.3258 11.0108 14.0654 11.1256 13.8776 11.3186L13.8664 11.3298C13.647 11.5439 13.5244 11.8489 13.5553 12.1728L13.556 12.18C13.5997 12.7037 14.1031 13.1551 14.7209 13.1551H16.2879C16.6294 13.1551 16.9064 13.432 16.9064 13.7736V14.755C16.9064 16.8037 15.2357 18.4744 13.187 18.4744H3.7194C1.67066 18.4744 0 16.8037 0 14.755V9.20475Z" fill="#0D257B"/>
<path fill-rule="evenodd" clip-rule="evenodd" d="M10.1851 2.96993C10.1851 2.30396 9.51953 1.84676 8.90331 2.08031L2.35487 4.55454C1.68128 4.80954 1.23705 5.45265 1.23705 6.17803V9.9469C1.23705 10.2885 0.960125 10.5654 0.618526 10.5654C0.276926 10.5654 0 10.2885 0 9.9469V6.17803C0 4.94071 0.759995 3.83536 1.91708 3.39754L8.4649 0.923558C8.46473 0.923607 8.46498 0.923517 8.4649 0.923558C9.89386 0.382202 11.4221 1.44231 11.4221 2.96993V6.10378C11.4221 6.44539 11.1452 6.72231 10.8036 6.72231C10.462 6.72231 10.1851 6.44539 10.1851 6.10378V2.96993Z" fill="#0D257B"/>
<path fill-rule="evenodd" clip-rule="evenodd" d="M14.6209 11.0105C14.3249 11.0105 14.0644 11.1253 13.8766 11.3183L13.8654 11.3294C13.6461 11.5436 13.5235 11.8486 13.5543 12.1724L13.555 12.1797C13.5986 12.7034 14.1021 13.1547 14.7199 13.1547H16.3221C16.4555 13.1461 16.5425 13.0418 16.5425 12.932V11.2332C16.5425 11.1233 16.4555 11.0191 16.3221 11.0105H14.6209ZM12.9958 10.4496C13.4177 10.0193 13.9961 9.77344 14.6209 9.77344H16.3363C16.3437 9.77344 16.3511 9.7736 16.3584 9.77385C17.1444 9.80189 17.7795 10.4379 17.7795 11.2332V12.932C17.7795 13.7273 17.1444 14.3633 16.3584 14.3914C16.3511 14.3916 16.3437 14.3918 16.3363 14.3918H14.7199C13.5575 14.3918 12.4292 13.5417 12.3225 12.2861C12.2559 11.575 12.5267 10.9107 12.9958 10.4496Z" fill="#0D257B"/>
<path fill-rule="evenodd" clip-rule="evenodd" d="M3.71094 9.60876C3.71094 9.26717 3.98786 8.99023 4.32946 8.99023H10.1024C10.444 8.99023 10.7209 9.26717 10.7209 9.60876C10.7209 9.95035 10.444 10.2273 10.1024 10.2273H4.32946C3.98786 10.2273 3.71094 9.95035 3.71094 9.60876Z" fill="#0D257B"/>
</g>
<defs>
<clipPath id="clip0_2093_4728">
<rect width="17.78" height="17.78" fill="white" transform="translate(0 0.78125)"/>
</clipPath>
</defs>
</svg>
